<svg width="1024" height="1024" viewBox="0 0 1024 1024" fill="none" xmlns="http://www.w3.org/2000/svg">
<path d="M832 160H192C138.981 160 96 202.981 96 256V832C96 885.019 138.981 928 192 928H832C885.019 928 928 885.019 928 832V256C928 202.981 885.019 160 832 160Z" stroke="#767676" stroke-width="64" stroke-linejoin="round"/>
<path d="M256 96V160M768 96V160" stroke="#767676" stroke-width="64" stroke-linecap="round" stroke-linejoin="round"/>
<path d="M928 320H96" stroke="#767676" stroke-width="64" stroke-linejoin="round"/>
<path d="M337.836 497.59L270.54 498.88C257.245 499.135 247.897 512.051 251.808 524.759L342.495 819.436C346.672 833.011 363.274 838.027 374.27 829.036L383.248 821.695C388.503 817.398 391.22 810.729 390.463 803.983L358.095 515.357C356.944 505.092 348.164 497.392 337.836 497.59Z" stroke="#767676" stroke-width="41"/>
<path d="M467.346 592.382V462.467C467.346 453.808 472.918 446.133 481.151 443.451L574.015 413.2C591.465 407.516 606.717 426.371 597.511 442.249L504.648 602.413C494.394 620.098 467.346 612.824 467.346 592.382Z" stroke="#767676" stroke-width="41"/>
<path d="M530.527 775.837L701.651 460.088C706.022 452.023 714.458 447 723.631 447H755.311C769.118 447 780.311 458.193 780.311 472V674.209C780.311 678.67 779.118 683.05 776.854 686.894L691.812 831.321C686.136 840.96 674.747 845.656 663.926 842.818L546.164 811.931C530.48 807.817 522.801 790.092 530.527 775.837Z" stroke="#767676" stroke-width="41"/>
</svg>
