<svg width="1024" height="1024" viewBox="0 0 1024 1024" fill="none" xmlns="http://www.w3.org/2000/svg">
  <g clip-path="url(#clip0_2731_1570)">
    <path 
      d="M799.344 939.288C799.344 950.886 789.942 960.288 778.344 960.288H84.344C72.746 960.288 63.344 950.886 63.344 939.288V181.288C63.344 169.69 72.746 160.288 84.344 160.288H504.474C509.908 160.288 515.13 158.182 519.044 154.411L576.443 99.1128C577.105 98.4753 577.115 97.4188 576.465 96.769V96.769C576.157 96.4611 575.739 96.2881 575.304 96.2881H63.344C28 96.2881 -0.656006 124.944 -0.656006 160.288V960.288C-0.656006 995.632 28 1024.29 63.344 1024.29H799.344C834.688 1024.29 863.344 995.632 863.344 960.288V540.707C863.344 522.233 841.208 512.761 827.844 525.516L805.844 546.515C801.693 550.478 799.344 555.967 799.344 561.706V939.288Z"
      stroke="#616161" fill="#616161"
    />
    <path 
      d="M974.224 41.4401C945.344 13.7601 913.473 -0.272949 879.473 -0.272949C826.257 -0.272949 787.441 34.0951 776.881 44.6241C761.934 59.3795 339.347 481.345 337.718 482.972C337.668 483.022 337.688 483.002 337.639 483.053C334.349 486.43 331.944 490.546 330.705 495.12C319.217 537.568 261.633 726.112 261.057 727.984C258.081 737.648 260.737 748.177 267.857 755.201C270.337 757.691 273.284 759.665 276.53 761.01C279.776 762.356 283.256 763.046 286.77 763.041C289.522 763.041 292.29 762.641 295.009 761.793C296.961 761.137 491.505 698.224 523.521 688.673C527.745 687.425 531.569 685.137 534.737 682.049C554.945 662.113 944.849 278.257 976.401 245.665C1009.03 212.001 1025.25 177.008 1024.62 141.568C1024.03 106.56 1007.01 72.8641 974.224 41.4401ZM930.433 201.119C912.625 219.487 773.184 357.279 515.984 610.655L499.951 626.466C497.555 628.83 494.651 630.573 491.438 631.575C467.189 639.135 423.04 653.268 381.001 666.791C364.87 671.98 349.54 656.921 354.432 640.698C367.565 597.142 380.8 552.874 388.344 526.582C389.334 523.133 390.972 520.213 393.51 517.678C459.228 452.059 808.5 103.327 822.03 89.968C824.719 87.279 849.247 63.7111 879.47 63.7111C896.623 63.7111 913.151 71.535 929.935 87.631C950 106.879 960.335 125.375 960.624 142.655C960.944 160.447 950.784 180.111 930.433 201.119Z"
      stroke="#616161" fill="#616161"
    />
    <path 
      d="M461 268H0V328H406.66L461 268Z"
      stroke="#616161" fill="#616161"
    />
  </g>
</svg>
