<svg width="693" height="620" viewBox="0 0 693 620" fill="none" xmlns="http://www.w3.org/2000/svg">
<path d="M220.39 209H159.247C145.741 209 136.118 222.11 140.166 234.994L219.214 486.623C223.297 499.619 238.893 504.82 249.959 496.876L257.097 491.751C262.913 487.575 266.054 480.607 265.33 473.483L240.288 226.979C239.251 216.768 230.653 209 220.39 209Z" stroke="#616161" stroke-width="31"/>
<path d="M299 292.169V186.11C299 177.26 304.815 169.463 313.297 166.94L396.313 142.244C414.041 136.97 428.813 156.519 418.9 172.133L335.884 302.889C325.154 319.791 299 312.189 299 292.169Z" stroke="#616161" stroke-width="31"/>
<path d="M339.311 444.365L498.432 176.241C502.936 168.652 511.107 164 519.931 164H548.673C562.48 164 573.673 175.193 573.673 189V359.634C573.673 364.439 572.288 369.143 569.684 373.182L490.102 496.608C484.35 505.529 473.591 509.845 463.268 507.372L354.987 481.436C338.609 477.514 330.716 458.848 339.311 444.365Z" stroke="#616161" stroke-width="31"/>
</svg>
