<svg width="1059" height="1058" viewBox="0 0 1059 1058" fill="none" xmlns="http://www.w3.org/2000/svg">
<path d="M709.94 93.2559L384.587 185.94L548.244 353.484L709.94 93.2559Z" fill="#FFDB65"/>
<path d="M335.486 689.356V202.184L383.711 187.055L548.243 353.48L335.486 689.356Z" fill="white" stroke="black" stroke-width="35"/>
<path d="M387.928 185.763L721.049 80.2422L545.898 358.009" stroke="black" stroke-width="35"/>
<path d="M229.38 1018.95L95.8398 501.518L247.59 613.476L271.87 994.741L229.38 1018.95Z" fill="#8CD554"/>
<path d="M96.0356 498.947L229.276 1018.09L271.716 995.391L247.535 615.409" stroke="black" stroke-width="35"/>
<path d="M95.8399 498.491L23 232.211H229.38L247.59 616.502L95.8399 498.491Z" fill="white" stroke="black" stroke-width="35"/>
<path d="M338.335 873.704L389.93 795.031H684.629L341.674 1025L338.335 873.704Z" fill="#70A2E2" stroke="black" stroke-width="35"/>
<path d="M933.407 628.605L1030.53 565.061L1032.99 71.838V15.8262C943.934 197.691 898.667 300.514 816.027 485.622L933.407 628.605Z" fill="#FF5B5B"/>
<path d="M1030.48 18.9351H875.609L584.079 485.818H814.874L1030.48 18.9351Z" fill="white" stroke="black" stroke-width="35"/>
<path d="M933.498 628.605L818.169 486.388H584.474L390.234 795.03H684.629L933.498 628.605Z" fill="white" stroke="black" stroke-width="35"/>
<path d="M1041.14 1L1040.31 563.533L933.559 627.795" stroke="black" stroke-width="35"/>
</svg>
