<svg width="1120" height="1145" viewBox="0 0 1120 1145" fill="none" xmlns="http://www.w3.org/2000/svg">
<path d="M731.94 126.256L406.588 218.94L570.245 386.484L731.94 126.256Z" fill="white"/>
<path d="M357.486 722.356V235.184L405.711 220.055L570.244 386.48L357.486 722.356Z" fill="white" stroke="black" stroke-width="35"/>
<path d="M409.928 218.763L743.049 113.242L567.898 391.009" stroke="black" stroke-width="35"/>
<path d="M251.38 1051.95L117.84 534.518L269.59 646.476L293.87 1027.74L251.38 1051.95Z" fill="#8CD554"/>
<path d="M118.035 531.947L251.276 1051.09L293.715 1028.39L269.535 648.409" stroke="black" stroke-width="35"/>
<path d="M117.84 531.491L45 265.211H251.38L269.59 649.502L117.84 531.491Z" fill="white" stroke="black" stroke-width="35"/>
<path d="M360.336 906.704L411.931 828.031H706.629L363.675 1058L360.336 906.704Z" fill="white" stroke="black" stroke-width="35"/>
<path d="M955.407 661.605L1052.53 598.061L1054.99 104.838V48.8262C965.934 230.691 920.667 333.514 838.027 518.622L955.407 661.605Z" fill="white"/>
<path d="M1052.49 51.9351H897.611L606.08 518.818H836.875L1052.49 51.9351Z" fill="white" stroke="black" stroke-width="35"/>
<path d="M955.499 661.605L840.169 519.388H606.474L412.234 828.03H706.629L955.499 661.605Z" fill="white" stroke="black" stroke-width="35"/>
<path d="M1063.14 34L1062.31 596.533L955.559 660.795" stroke="black" stroke-width="35"/>
</svg>
