<svg width="447" height="387" viewBox="0 0 447 387" fill="none" xmlns="http://www.w3.org/2000/svg">
<path d="M88.3903 82H27.2465C13.7412 82 4.1183 95.1095 8.1659 107.994L87.2139 359.623C91.2965 372.619 106.893 377.82 117.959 369.876L125.097 364.751C130.913 360.575 134.054 353.607 133.33 346.483L108.288 99.9786C107.251 89.7682 98.6533 82 88.3903 82Z" stroke="black" stroke-width="10"/>
<path d="M167 165.169V59.1096C167 50.2604 172.815 42.4631 181.297 39.9399L264.313 15.2438C282.041 9.97004 296.813 29.5189 286.9 45.1333L203.884 175.889C193.154 192.791 167 185.189 167 165.169Z" stroke="black" stroke-width="10"/>
<path d="M207.311 317.365L366.432 49.2411C370.936 41.6523 379.107 37 387.931 37H416.673C430.48 37 441.673 48.1929 441.673 62V232.634C441.673 237.439 440.288 242.143 437.684 246.182L358.102 369.608C352.35 378.529 341.591 382.845 331.268 380.372L222.987 354.436C206.609 350.514 198.716 331.848 207.311 317.365Z" stroke="black" stroke-width="10"/>
</svg>
